<?xml version="1.0" encoding="UTF-8" standalone="no"?>
<!-- Created with Inkscape (http://www.inkscape.org/) -->

<svg
   version="1.1"
   id="svg2"
   width="264.56668"
   height="264.56668"
   viewBox="0 0 264.56668 264.56668"

   sodipodi:docname="EMBIE_Logo_RVB.ai"
   xmlns:inkscape="http://www.inkscape.org/namespaces/inkscape"
   xmlns:sodipodi="http://sodipodi.sourceforge.net/DTD/sodipodi-0.dtd"
   xmlns="http://www.w3.org/2000/svg"
   xmlns:svg="http://www.w3.org/2000/svg">

  <defs
     id="defs6">
    <clipPath
       clipPathUnits="userSpaceOnUse"
       id="clipPath16">
      <path
         d="M 0,198.425 H 198.425 V 0 H 0 Z"
         id="path14" />
    </clipPath>
  </defs>
  <sodipodi:namedview
     id="namedview4"
     pagecolor="#ffffff"
     bordercolor="#000000"
     borderopacity="0.25"
     inkscape:showpageshadow="2"
     inkscape:pageopacity="0.0"
     inkscape:pagecheckerboard="0"
     inkscape:deskcolor="#d1d1d1" />
  <g
     id="g8"
     inkscape:groupmode="layer"
     inkscape:label="EMBIE_Logo_RVB"
     transform="matrix(1.3333333,0,0,-1.3333333,0,264.56667)">
    <g
       id="g10">
      <g
         id="g12"
         clip-path="url(#clipPath16)">
        <g
           id="g18"
           transform="translate(157.1842,63.9648)">
          <path
             d="M 0,0 C 1.958,3.376 3.088,6.964 3.227,10.194 3.55,17.713 -2.188,20.418 -8.585,16.725 L -48.379,-6.249 c -2.204,-1.273 -3.991,-4.356 -3.991,-6.885 v -8.3 c 0,-0.122 -0.031,-0.251 -0.033,-0.374 v -7.585 c 0,-2.53 1.787,-3.549 3.991,-2.276 L -7.826,-8.237 C -4.866,-6.526 -2.087,-3.6 0,0"
             style="fill:#60a1e2;fill-opacity:1;fill-rule:nonzero;stroke:none"
             id="path20" />
        </g>
        <g
           id="g22"
           transform="translate(159.072,106.5647)">
          <path
             d="m 0,0 c 4.226,11.277 -2.115,17.373 -9.709,12.977 l -40.56,-23.413 c -2.204,-1.273 -3.991,-4.355 -3.991,-6.885 V -33.56 c 0,-2.53 1.787,-3.548 3.991,-2.276 l 39.54,22.828 C -6.372,-10.492 -2.096,-5.591 0,0"
             style="fill:#60a1e2;fill-opacity:1;fill-rule:nonzero;stroke:none"
             id="path24" />
        </g>
        <g
           id="g26"
           transform="translate(90.3712,91.9953)">
          <path
             d="m 0,0 c -1.957,3.377 -4.515,6.151 -7.26,7.894 -6.39,4.061 -11.635,0.504 -11.635,-6.837 v -45.662 c 0,-2.53 1.787,-5.612 3.991,-6.885 l 7.234,-4.176 c 0.105,-0.061 0.203,-0.152 0.309,-0.216 l 6.61,-3.817 c 2.205,-1.272 3.992,-0.254 3.992,2.276 v 46.572 C 3.239,-7.454 2.087,-3.6 0,0"
             style="fill:#ffaf23;fill-opacity:1;fill-rule:nonzero;stroke:none"
             id="path28" />
        </g>
        <g
           id="g30"
           transform="translate(54.1967,115.0469)">
          <path
             d="m 0,0 c -7.701,9.295 -16.204,6.928 -16.194,-1.791 l -0.003,-46.541 c -0.001,-2.529 1.787,-5.611 3.991,-6.884 l 14.152,-8.171 c 2.204,-1.272 3.991,-0.254 3.991,2.276 l 10e-4,45.372 C 5.938,-10.739 3.818,-4.61 0,0"
             style="fill:#ffaf23;fill-opacity:1;fill-rule:nonzero;stroke:none"
             id="path32" />
        </g>
        <g
           id="g34"
           transform="translate(109.5817,123.5025)">
          <path
             d="m 0,0 -39.824,22.992 c -2.206,1.273 -5.772,1.28 -7.964,0.015 l -7.193,-4.155 c -0.106,-0.058 -0.234,-0.098 -0.341,-0.156 l -6.575,-3.795 c -2.192,-1.268 -2.18,-3.326 0.026,-4.599 l 40.617,-23.453 c 2.964,-1.707 6.89,-2.653 11.055,-2.66 3.906,-0.006 7.581,0.81 10.449,2.306 C 6.93,-10.024 6.403,-3.698 0,0"
             style="fill:#ea492e;fill-opacity:1;fill-rule:nonzero;stroke:none"
             id="path36" />
        </g>
        <g
           id="g38"
           transform="translate(143.6379,142.281)">
          <path
             d="m 0,0 -40.589,23.438 c -2.206,1.273 -5.771,1.279 -7.964,0.012 l -14.074,-8.125 c -2.192,-1.264 -2.182,-3.322 0.024,-4.598 l 39.571,-22.846 c 4.36,-2.519 10.748,-3.771 16.643,-2.788 C 5.498,-12.928 7.609,-4.382 0,0"
             style="fill:#ea492e;fill-opacity:1;fill-rule:nonzero;stroke:none"
             id="path40" />
        </g>
      </g>
    </g>
  </g>
</svg>
